<svg xmlns="http://www.w3.org/2000/svg" id="flag-icons-um" viewBox="0 0 640 480">
  <path fill="#bd3d44" d="M0 0h640v480H0z"/>
  <path stroke="#fff" stroke-width="37" d="M0 55.3h640M0 129h640M0 203h640M0 277h640M0 351h640M0 425h640"/>
  <path fill="#192f5d" d="M0 0h364.8v258.5H0z"/>
  <path fill="#fff" d="M30.40,9.93L33.98,20.93L45.54,20.93L36.18,27.73L39.76,38.73L30.40,31.93L21.04,38.73L24.62,27.73L15.26,20.93L26.82,20.93ZM91.20,9.93L94.78,20.93L106.34,20.93L96.98,27.73L100.56,38.73L91.20,31.93L81.84,38.73L85.42,27.73L76.06,20.93L87.62,20.93ZM152.00,9.93L155.58,20.93L167.14,20.93L157.78,27.73L161.36,38.73L152.00,31.93L142.64,38.73L146.22,27.73L136.86,20.93L148.42,20.93ZM212.80,9.93L216.38,20.93L227.94,20.93L218.58,27.73L222.16,38.73L212.80,31.93L203.44,38.73L207.02,27.73L197.66,20.93L209.22,20.93ZM273.60,9.93L277.18,20.93L288.74,20.93L279.38,27.73L282.96,38.73L273.60,31.93L264.24,38.73L267.82,27.73L258.46,20.93L270.02,20.93ZM334.40,9.93L337.98,20.93L349.54,20.93L340.18,27.73L343.76,38.73L334.40,31.93L325.04,38.73L328.62,27.73L319.26,20.93L330.82,20.93ZM60.80,35.78L64.38,46.78L75.94,46.78L66.58,53.58L70.16,64.58L60.80,57.78L51.44,64.58L55.02,53.58L45.66,46.78L57.22,46.78ZM121.60,35.78L125.18,46.78L136.74,46.78L127.38,53.58L130.96,64.58L121.60,57.78L112.24,64.58L115.82,53.58L106.46,46.78L118.02,46.78ZM182.40,35.78L185.98,46.78L197.54,46.78L188.18,53.58L191.76,64.58L182.40,57.78L173.04,64.58L176.62,53.58L167.26,46.78L178.82,46.78ZM243.20,35.78L246.78,46.78L258.34,46.78L248.98,53.58L252.56,64.58L243.20,57.78L233.84,64.58L237.42,53.58L228.06,46.78L239.62,46.78ZM304.00,35.78L307.58,46.78L319.14,46.78L309.78,53.58L313.36,64.58L304.00,57.78L294.64,64.58L298.22,53.58L288.86,46.78L300.42,46.78ZM30.40,61.63L33.98,72.63L45.54,72.63L36.18,79.43L39.76,90.43L30.40,83.63L21.04,90.43L24.62,79.43L15.26,72.63L26.82,72.63ZM91.20,61.63L94.78,72.63L106.34,72.63L96.98,79.43L100.56,90.43L91.20,83.63L81.84,90.43L85.42,79.43L76.06,72.63L87.62,72.63ZM152.00,61.63L155.58,72.63L167.14,72.63L157.78,79.43L161.36,90.43L152.00,83.63L142.64,90.43L146.22,79.43L136.86,72.63L148.42,72.63ZM212.80,61.63L216.38,72.63L227.94,72.63L218.58,79.43L222.16,90.43L212.80,83.63L203.44,90.43L207.02,79.43L197.66,72.63L209.22,72.63ZM273.60,61.63L277.18,72.63L288.74,72.63L279.38,79.43L282.96,90.43L273.60,83.63L264.24,90.43L267.82,79.43L258.46,72.63L270.02,72.63ZM334.40,61.63L337.98,72.63L349.54,72.63L340.18,79.43L343.76,90.43L334.40,83.63L325.04,90.43L328.62,79.43L319.26,72.63L330.82,72.63ZM60.80,87.48L64.38,98.48L75.94,98.48L66.58,105.28L70.16,116.28L60.80,109.48L51.44,116.28L55.02,105.28L45.66,98.48L57.22,98.48ZM121.60,87.48L125.18,98.48L136.74,98.48L127.38,105.28L130.96,116.28L121.60,109.48L112.24,116.28L115.82,105.28L106.46,98.48L118.02,98.48ZM182.40,87.48L185.98,98.48L197.54,98.48L188.18,105.28L191.76,116.28L182.40,109.48L173.04,116.28L176.62,105.28L167.26,98.48L178.82,98.48ZM243.20,87.48L246.78,98.48L258.34,98.48L248.98,105.28L252.56,116.28L243.20,109.48L233.84,116.28L237.42,105.28L228.06,98.48L239.62,98.48ZM304.00,87.48L307.58,98.48L319.14,98.48L309.78,105.28L313.36,116.28L304.00,109.48L294.64,116.28L298.22,105.28L288.86,98.48L300.42,98.48ZM30.40,113.33L33.98,124.33L45.54,124.33L36.18,131.13L39.76,142.13L30.40,135.33L21.04,142.13L24.62,131.13L15.26,124.33L26.82,124.33ZM91.20,113.33L94.78,124.33L106.34,124.33L96.98,131.13L100.56,142.13L91.20,135.33L81.84,142.13L85.42,131.13L76.06,124.33L87.62,124.33ZM152.00,113.33L155.58,124.33L167.14,124.33L157.78,131.13L161.36,142.13L152.00,135.33L142.64,142.13L146.22,131.13L136.86,124.33L148.42,124.33ZM212.80,113.33L216.38,124.33L227.94,124.33L218.58,131.13L222.16,142.13L212.80,135.33L203.44,142.13L207.02,131.13L197.66,124.33L209.22,124.33ZM273.60,113.33L277.18,124.33L288.74,124.33L279.38,131.13L282.96,142.13L273.60,135.33L264.24,142.13L267.82,131.13L258.46,124.33L270.02,124.33ZM334.40,113.33L337.98,124.33L349.54,124.33L340.18,131.13L343.76,142.13L334.40,135.33L325.04,142.13L328.62,131.13L319.26,124.33L330.82,124.33ZM60.80,139.18L64.38,150.18L75.94,150.18L66.58,156.98L70.16,167.98L60.80,161.18L51.44,167.98L55.02,156.98L45.66,150.18L57.22,150.18ZM121.60,139.18L125.18,150.18L136.74,150.18L127.38,156.98L130.96,167.98L121.60,161.18L112.24,167.98L115.82,156.98L106.46,150.18L118.02,150.18ZM182.40,139.18L185.98,150.18L197.54,150.18L188.18,156.98L191.76,167.98L182.40,161.18L173.04,167.98L176.62,156.98L167.26,150.18L178.82,150.18ZM243.20,139.18L246.78,150.18L258.34,150.18L248.98,156.98L252.56,167.98L243.20,161.18L233.84,167.98L237.42,156.98L228.06,150.18L239.62,150.18ZM304.00,139.18L307.58,150.18L319.14,150.18L309.78,156.98L313.36,167.98L304.00,161.18L294.64,167.98L298.22,156.98L288.86,150.18L300.42,150.18ZM30.40,165.03L33.98,176.03L45.54,176.03L36.18,182.83L39.76,193.83L30.40,187.03L21.04,193.83L24.62,182.83L15.26,176.03L26.82,176.03ZM91.20,165.03L94.78,176.03L106.34,176.03L96.98,182.83L100.56,193.83L91.20,187.03L81.84,193.83L85.42,182.83L76.06,176.03L87.62,176.03ZM152.00,165.03L155.58,176.03L167.14,176.03L157.78,182.83L161.36,193.83L152.00,187.03L142.64,193.83L146.22,182.83L136.86,176.03L148.42,176.03ZM212.80,165.03L216.38,176.03L227.94,176.03L218.58,182.83L222.16,193.83L212.80,187.03L203.44,193.83L207.02,182.83L197.66,176.03L209.22,176.03ZM273.60,165.03L277.18,176.03L288.74,176.03L279.38,182.83L282.96,193.83L273.60,187.03L264.24,193.83L267.82,182.83L258.46,176.03L270.02,176.03ZM334.40,165.03L337.98,176.03L349.54,176.03L340.18,182.83L343.76,193.83L334.40,187.03L325.04,193.83L328.62,182.83L319.26,176.03L330.82,176.03ZM60.80,190.88L64.38,201.88L75.94,201.88L66.58,208.68L70.16,219.68L60.80,212.88L51.44,219.68L55.02,208.68L45.66,201.88L57.22,201.88ZM121.60,190.88L125.18,201.88L136.74,201.88L127.38,208.68L130.96,219.68L121.60,212.88L112.24,219.68L115.82,208.68L106.46,201.88L118.02,201.88ZM182.40,190.88L185.98,201.88L197.54,201.88L188.18,208.68L191.76,219.68L182.40,212.88L173.04,219.68L176.62,208.68L167.26,201.88L178.82,201.88ZM243.20,190.88L246.78,201.88L258.34,201.88L248.98,208.68L252.56,219.68L243.20,212.88L233.84,219.68L237.42,208.68L228.06,201.88L239.62,201.88ZM304.00,190.88L307.58,201.88L319.14,201.88L309.78,208.68L313.36,219.68L304.00,212.88L294.64,219.68L298.22,208.68L288.86,201.88L300.42,201.88ZM30.40,216.73L33.98,227.73L45.54,227.73L36.18,234.53L39.76,245.53L30.40,238.73L21.04,245.53L24.62,234.53L15.26,227.73L26.82,227.73ZM91.20,216.73L94.78,227.73L106.34,227.73L96.98,234.53L100.56,245.53L91.20,238.73L81.84,245.53L85.42,234.53L76.06,227.73L87.62,227.73ZM152.00,216.73L155.58,227.73L167.14,227.73L157.78,234.53L161.36,245.53L152.00,238.73L142.64,245.53L146.22,234.53L136.86,227.73L148.42,227.73ZM212.80,216.73L216.38,227.73L227.94,227.73L218.58,234.53L222.16,245.53L212.80,238.73L203.44,245.53L207.02,234.53L197.66,227.73L209.22,227.73ZM273.60,216.73L277.18,227.73L288.74,227.73L279.38,234.53L282.96,245.53L273.60,238.73L264.24,245.53L267.82,234.53L258.46,227.73L270.02,227.73ZM334.40,216.73L337.98,227.73L349.54,227.73L340.18,234.53L343.76,245.53L334.40,238.73L325.04,245.53L328.62,234.53L319.26,227.73L330.82,227.73Z"/>
</svg>
